<?xml version="1.0" encoding="UTF-8" standalone="no"?>
<!DOCTYPE svg PUBLIC "-//W3C//DTD SVG 1.1//EN"
 "http://www.w3.org/Graphics/SVG/1.1/DTD/svg11.dtd">
<!-- Generated by graphviz version 12.2.1 (20241206.2353)
 -->
<!-- Title: DocumentWorkflow Pages: 1 -->
<svg width="1204pt" height="367pt"
 viewBox="0.00 0.00 1204.33 367.40" xmlns="http://www.w3.org/2000/svg" xmlns:xlink="http://www.w3.org/1999/xlink">
<g id="graph0" class="graph" transform="scale(1 1) rotate(0) translate(4 363.4)">
<title>DocumentWorkflow</title>
<polygon fill="white" stroke="none" points="-4,4 -4,-363.4 1200.33,-363.4 1200.33,4 -4,4"/>
<!-- draft -->
<g id="node1" class="node">
<title>draft</title>
<g id="a_node1"><a xlink:href="#draft" xlink:title="draft">
<ellipse fill="lightgrey" stroke="black" cx="28.32" cy="-37.53" rx="28.32" ry="28.32"/>
<text text-anchor="middle" x="28.32" y="-32.48" font-family="Times New Roman,serif" font-size="14.00">draft</text>
</a>
</g>
</g>
<!-- review -->
<g id="node2" class="node">
<title>review</title>
<g id="a_node2"><a xlink:href="#review" xlink:title="review">
<ellipse fill="lightgrey" stroke="black" cx="166.14" cy="-192.53" rx="36" ry="36"/>
<text text-anchor="middle" x="166.14" y="-187.48" font-family="Times New Roman,serif" font-size="14.00">review</text>
</a>
</g>
</g>
<!-- draft&#45;&gt;review -->
<g id="edge1" class="edge">
<title>draft&#45;&gt;review</title>
<g id="a_edge1"><a xlink:href="#submit" xlink:title="submit">
<path fill="none" stroke="black" d="M47.64,-58.44C69.78,-83.71 107.39,-126.63 134.09,-157.1"/>
<polygon fill="black" stroke="black" points="131.43,-159.38 140.66,-164.59 136.7,-154.77 131.43,-159.38"/>
</a>
</g>
<g id="a_edge1&#45;label"><a xlink:href="#submit" xlink:title="submit">
<text text-anchor="middle" x="93.39" y="-132.12" font-family="Times New Roman,serif" font-size="14.00">submit</text>
</a>
</g>
</g>
<!-- deleted -->
<g id="node10" class="node">
<title>deleted</title>
<g id="a_node10"><a xlink:href="#deleted" xlink:title="deleted">
<ellipse fill="lightgrey" stroke="black" cx="1158.8" cy="-37.53" rx="37.53" ry="37.53"/>
<text text-anchor="middle" x="1158.8" y="-32.48" font-family="Times New Roman,serif" font-size="14.00">deleted</text>
</a>
</g>
</g>
<!-- draft&#45;&gt;deleted -->
<g id="edge9" class="edge">
<title>draft&#45;&gt;deleted</title>
<g id="a_edge9"><a xlink:href="#delete" xlink:title="delete">
<path fill="none" stroke="black" d="M56.52,-32.43C83.86,-27.74 127.27,-21.53 165.14,-21.53 165.14,-21.53 165.14,-21.53 1009.32,-21.53 1043.2,-21.53 1081.17,-25.7 1110.24,-29.78"/>
<polygon fill="black" stroke="black" points="1109.41,-33.2 1119.81,-31.17 1110.42,-26.27 1109.41,-33.2"/>
</a>
</g>
<g id="a_edge9&#45;label"><a xlink:href="#delete" xlink:title="delete">
<text text-anchor="middle" x="597.43" y="-24.73" font-family="Times New Roman,serif" font-size="14.00">delete</text>
</a>
</g>
</g>
<!-- corrections -->
<g id="node3" class="node">
<title>corrections</title>
<g id="a_node3"><a xlink:href="#corrections" xlink:title="corrections">
<ellipse fill="lightgrey" stroke="black" cx="379.25" cy="-307.53" rx="51.86" ry="51.86"/>
<text text-anchor="middle" x="379.25" y="-302.48" font-family="Times New Roman,serif" font-size="14.00">corrections</text>
</a>
</g>
</g>
<!-- review&#45;&gt;corrections -->
<g id="edge2" class="edge">
<title>review&#45;&gt;corrections</title>
<g id="a_edge2"><a xlink:href="#request_changes" xlink:title="request_changes">
<path fill="none" stroke="black" d="M181.97,-224.98C190.86,-240.98 203.67,-259.22 220.13,-270.53 248.18,-289.8 284.92,-299.12 315.92,-303.6"/>
<polygon fill="black" stroke="black" points="315.19,-307.03 325.56,-304.84 316.09,-300.09 315.19,-307.03"/>
</a>
</g>
<g id="a_edge2&#45;label"><a xlink:href="#request_changes" xlink:title="request_changes">
<text text-anchor="middle" x="264.76" y="-305.15" font-family="Times New Roman,serif" font-size="14.00">request_changes</text>
</a>
</g>
</g>
<!-- approved -->
<g id="node4" class="node">
<title>approved</title>
<g id="a_node4"><a xlink:href="#approved" xlink:title="approved">
<ellipse fill="lightgrey" stroke="black" cx="379.25" cy="-192.53" rx="45.21" ry="45.21"/>
<text text-anchor="middle" x="379.25" y="-187.48" font-family="Times New Roman,serif" font-size="14.00">approved</text>
</a>
</g>
</g>
<!-- review&#45;&gt;approved -->
<g id="edge4" class="edge">
<title>review&#45;&gt;approved</title>
<g id="a_edge4"><a xlink:href="#approve" xlink:title="approve">
<path fill="none" stroke="black" d="M202.47,-192.53C235.13,-192.53 284.2,-192.53 322.2,-192.53"/>
<polygon fill="black" stroke="black" points="322.09,-196.03 332.09,-192.53 322.09,-189.03 322.09,-196.03"/>
</a>
</g>
<g id="a_edge4&#45;label"><a xlink:href="#approve" xlink:title="approve">
<text text-anchor="middle" x="264.76" y="-195.73" font-family="Times New Roman,serif" font-size="14.00">approve</text>
</a>
</g>
</g>
<!-- rejected -->
<g id="node9" class="node">
<title>rejected</title>
<g id="a_node9"><a xlink:href="#rejected" xlink:title="rejected">
<ellipse fill="lightgrey" stroke="black" cx="379.25" cy="-89.53" rx="40.09" ry="40.09"/>
<text text-anchor="middle" x="379.25" y="-84.48" font-family="Times New Roman,serif" font-size="14.00">rejected</text>
</a>
</g>
</g>
<!-- review&#45;&gt;rejected -->
<g id="edge11" class="edge">
<title>review&#45;&gt;rejected</title>
<g id="a_edge11"><a xlink:href="#reject" xlink:title="reject">
<path fill="none" stroke="black" d="M198.74,-177.11C234.3,-159.77 292.34,-131.44 332.77,-111.72"/>
<polygon fill="black" stroke="black" points="334.08,-114.97 341.54,-107.44 331.02,-108.68 334.08,-114.97"/>
</a>
</g>
<g id="a_edge11&#45;label"><a xlink:href="#reject" xlink:title="reject">
<text text-anchor="middle" x="264.76" y="-168.11" font-family="Times New Roman,serif" font-size="14.00">reject</text>
</a>
</g>
</g>
<!-- corrections&#45;&gt;review -->
<g id="edge3" class="edge">
<title>corrections&#45;&gt;review</title>
<g id="a_edge3"><a xlink:href="#resubmit" xlink:title="resubmit">
<path fill="none" stroke="black" d="M340.51,-272.45C330.8,-264.46 320.07,-256.44 309.38,-250.03 307.09,-248.66 251.66,-226.37 210.69,-209.95"/>
<polygon fill="black" stroke="black" points="212.09,-206.74 201.5,-206.27 209.48,-213.24 212.09,-206.74"/>
</a>
</g>
<g id="a_edge3&#45;label"><a xlink:href="#resubmit" xlink:title="resubmit">
<text text-anchor="middle" x="264.76" y="-253.23" font-family="Times New Roman,serif" font-size="14.00">resubmit</text>
</a>
</g>
</g>
<!-- signed -->
<g id="node5" class="node">
<title>signed</title>
<g id="a_node5"><a xlink:href="#signed" xlink:title="signed">
<ellipse fill="lightgrey" stroke="black" cx="524.58" cy="-192.53" rx="34.97" ry="34.97"/>
<text text-anchor="middle" x="524.58" y="-187.48" font-family="Times New Roman,serif" font-size="14.00">signed</text>
</a>
</g>
</g>
<!-- approved&#45;&gt;signed -->
<g id="edge5" class="edge">
<title>approved&#45;&gt;signed</title>
<g id="a_edge5"><a xlink:href="#sign" xlink:title="sign">
<path fill="none" stroke="black" d="M424.81,-192.53C441.77,-192.53 461.11,-192.53 478.15,-192.53"/>
<polygon fill="black" stroke="black" points="478.01,-196.03 488.01,-192.53 478.01,-189.03 478.01,-196.03"/>
</a>
</g>
<g id="a_edge5&#45;label"><a xlink:href="#sign" xlink:title="sign">
<text text-anchor="middle" x="460.36" y="-195.73" font-family="Times New Roman,serif" font-size="14.00">sign</text>
</a>
</g>
</g>
<!-- published -->
<g id="node6" class="node">
<title>published</title>
<g id="a_node6"><a xlink:href="#published" xlink:title="published">
<ellipse fill="lightgrey" stroke="black" cx="682.05" cy="-192.53" rx="46.75" ry="46.75"/>
<text text-anchor="middle" x="682.05" y="-187.48" font-family="Times New Roman,serif" font-size="14.00">published</text>
</a>
</g>
</g>
<!-- signed&#45;&gt;published -->
<g id="edge6" class="edge">
<title>signed&#45;&gt;published</title>
<g id="a_edge6"><a xlink:href="#publish" xlink:title="publish">
<path fill="none" stroke="black" d="M559.7,-192.53C578.42,-192.53 602.12,-192.53 623.6,-192.53"/>
<polygon fill="black" stroke="black" points="623.41,-196.03 633.41,-192.53 623.41,-189.03 623.41,-196.03"/>
</a>
</g>
<g id="a_edge6&#45;label"><a xlink:href="#publish" xlink:title="publish">
<text text-anchor="middle" x="597.43" y="-195.73" font-family="Times New Roman,serif" font-size="14.00">publish</text>
</a>
</g>
</g>
<!-- archived -->
<g id="node7" class="node">
<title>archived</title>
<g id="a_node7"><a xlink:href="#archived" xlink:title="archived">
<ellipse fill="lightgrey" stroke="black" cx="847.71" cy="-196.53" rx="42.65" ry="42.65"/>
<text text-anchor="middle" x="847.71" y="-191.48" font-family="Times New Roman,serif" font-size="14.00">archived</text>
</a>
</g>
</g>
<!-- published&#45;&gt;archived -->
<g id="edge7" class="edge">
<title>published&#45;&gt;archived</title>
<g id="a_edge7"><a xlink:href="#archive" xlink:title="archive">
<path fill="none" stroke="black" d="M729.08,-193.66C749.01,-194.14 772.47,-194.72 793.17,-195.22"/>
<polygon fill="black" stroke="black" points="793.07,-198.72 803.16,-195.47 793.25,-191.72 793.07,-198.72"/>
</a>
</g>
<g id="a_edge7&#45;label"><a xlink:href="#archive" xlink:title="archive">
<text text-anchor="middle" x="766.67" y="-198.21" font-family="Times New Roman,serif" font-size="14.00">archive</text>
</a>
</g>
</g>
<!-- retracted -->
<g id="node11" class="node">
<title>retracted</title>
<g id="a_node11"><a xlink:href="#retracted" xlink:title="retracted">
<ellipse fill="lightgrey" stroke="black" cx="847.71" cy="-92.53" rx="43.16" ry="43.16"/>
<text text-anchor="middle" x="847.71" y="-87.48" font-family="Times New Roman,serif" font-size="14.00">retracted</text>
</a>
</g>
</g>
<!-- published&#45;&gt;retracted -->
<g id="edge12" class="edge">
<title>published&#45;&gt;retracted</title>
<g id="a_edge12"><a xlink:href="#retract" xlink:title="retract">
<path fill="none" stroke="black" d="M722.25,-168.58C745.88,-154.14 776.08,-135.69 800.82,-120.57"/>
<polygon fill="black" stroke="black" points="802.35,-123.74 809.06,-115.54 798.7,-117.77 802.35,-123.74"/>
</a>
</g>
<g id="a_edge12&#45;label"><a xlink:href="#retract" xlink:title="retract">
<text text-anchor="middle" x="766.67" y="-154.69" font-family="Times New Roman,serif" font-size="14.00">retract</text>
</a>
</g>
</g>
<!-- reopened -->
<g id="node8" class="node">
<title>reopened</title>
<g id="a_node8"><a xlink:href="#reopened" xlink:title="reopened">
<ellipse fill="lightgrey" stroke="black" cx="1008.32" cy="-145.53" rx="44.7" ry="44.7"/>
<text text-anchor="middle" x="1008.32" y="-140.48" font-family="Times New Roman,serif" font-size="14.00">reopened</text>
</a>
</g>
</g>
<!-- archived&#45;&gt;reopened -->
<g id="edge8" class="edge">
<title>archived&#45;&gt;reopened</title>
<g id="a_edge8"><a xlink:href="#reopen" xlink:title="reopen">
<path fill="none" stroke="black" d="M888.73,-183.66C908.66,-177.26 933.02,-169.42 954.46,-162.53"/>
<polygon fill="black" stroke="black" points="955.48,-165.88 963.93,-159.49 953.34,-159.21 955.48,-165.88"/>
</a>
</g>
<g id="a_edge8&#45;label"><a xlink:href="#reopen" xlink:title="reopen">
<text text-anchor="middle" x="927.25" y="-180.3" font-family="Times New Roman,serif" font-size="14.00">reopen</text>
</a>
</g>
</g>
<!-- reopened&#45;&gt;deleted -->
<g id="edge10" class="edge">
<title>reopened&#45;&gt;deleted</title>
<g id="a_edge10"><a xlink:href="#delete" xlink:title="delete">
<path fill="none" stroke="black" d="M1044.89,-119.66C1067.21,-103.43 1096,-82.49 1118.92,-65.81"/>
<polygon fill="black" stroke="black" points="1120.78,-68.79 1126.8,-60.08 1116.66,-63.13 1120.78,-68.79"/>
</a>
</g>
<g id="a_edge10&#45;label"><a xlink:href="#delete" xlink:title="delete">
<text text-anchor="middle" x="1087.14" y="-101.2" font-family="Times New Roman,serif" font-size="14.00">delete</text>
</a>
</g>
</g>
</g>
</svg>
