<?xml version="1.0" encoding="UTF-8" standalone="no"?>
<!DOCTYPE svg PUBLIC "-//W3C//DTD SVG 1.1//EN"
 "http://www.w3.org/Graphics/SVG/1.1/DTD/svg11.dtd">
<!-- Generated by graphviz version 12.2.1 (20241206.2353)
 -->
<!-- Title: FSM Pages: 1 -->
<svg width="348pt" height="79pt"
 viewBox="0.00 0.00 347.70 78.97" xmlns="http://www.w3.org/2000/svg" xmlns:xlink="http://www.w3.org/1999/xlink">
<g id="graph0" class="graph" transform="scale(1 1) rotate(0) translate(4 74.97)">
<title>FSM</title>
<polygon fill="white" stroke="none" points="-4,4 -4,-74.97 343.7,-74.97 343.7,4 -4,4"/>
<!-- solid -->
<g id="node1" class="node">
<title>solid</title>
<g id="a_node1"><a xlink:href="#solid" xlink:title="Click for Solid state docs">
<ellipse fill="lightgrey" stroke="black" cx="30.37" cy="-35.49" rx="30.37" ry="30.37"/>
<text text-anchor="middle" x="30.37" y="-30.44" font-family="Times New Roman,serif" font-size="14.00">Solid</text>
</a>
</g>
</g>
<!-- liquid -->
<g id="node2" class="node">
<title>liquid</title>
<g id="a_node2"><a xlink:href="#liquid" xlink:title="Click for Liquid state docs">
<ellipse fill="lightgrey" stroke="black" cx="165.22" cy="-35.49" rx="35.49" ry="35.49"/>
<text text-anchor="middle" x="165.22" y="-30.44" font-family="Times New Roman,serif" font-size="14.00">Liquid</text>
</a>
</g>
</g>
<!-- solid&#45;&gt;liquid -->
<g id="edge1" class="edge">
<title>solid&#45;&gt;liquid</title>
<path fill="none" stroke="black" d="M61.18,-35.49C77.91,-35.49 99.14,-35.49 117.97,-35.49"/>
<polygon fill="black" stroke="black" points="117.82,-38.99 127.82,-35.49 117.82,-31.99 117.82,-38.99"/>
<text text-anchor="middle" x="95.23" y="-38.69" font-family="Times New Roman,serif" font-size="14.00">melt</text>
</g>
<!-- liquid&#45;&gt;solid -->
<g id="edge4" class="edge">
<title>liquid&#45;&gt;solid</title>
<path fill="none" stroke="black" d="M132.58,-20.96C125.84,-18.48 118.66,-16.29 111.73,-14.99 97.32,-12.27 93.1,-12.01 78.73,-14.99 75.33,-15.69 71.88,-16.65 68.46,-17.77"/>
<polygon fill="black" stroke="black" points="67.33,-14.46 59.21,-21.27 69.8,-21.01 67.33,-14.46"/>
<text text-anchor="middle" x="95.23" y="-18.19" font-family="Times New Roman,serif" font-size="14.00">freeze</text>
</g>
<!-- gas -->
<g id="node3" class="node">
<title>gas</title>
<g id="a_node3"><a xlink:href="#gas" xlink:title="Click for Gas state docs">
<ellipse fill="lightgrey" stroke="black" cx="314.45" cy="-35.49" rx="25.25" ry="25.25"/>
<text text-anchor="middle" x="314.45" y="-30.44" font-family="Times New Roman,serif" font-size="14.00">Gas</text>
</a>
</g>
</g>
<!-- liquid&#45;&gt;gas -->
<g id="edge2" class="edge">
<title>liquid&#45;&gt;gas</title>
<path fill="none" stroke="black" d="M201.11,-35.49C224.14,-35.49 254.24,-35.49 277.48,-35.49"/>
<polygon fill="black" stroke="black" points="277.42,-38.99 287.42,-35.49 277.42,-31.99 277.42,-38.99"/>
<text text-anchor="middle" x="244.96" y="-38.69" font-family="Times New Roman,serif" font-size="14.00">evaporate</text>
</g>
<!-- gas&#45;&gt;liquid -->
<g id="edge3" class="edge">
<title>gas&#45;&gt;liquid</title>
<path fill="none" stroke="black" d="M292.22,-22.88C285.7,-19.65 278.36,-16.63 271.21,-14.99 248.46,-9.76 241.64,-10.67 218.71,-14.99 215.35,-15.62 211.94,-16.46 208.54,-17.44"/>
<polygon fill="black" stroke="black" points="207.7,-14.03 199.3,-20.48 209.89,-20.68 207.7,-14.03"/>
<text text-anchor="middle" x="244.96" y="-18.19" font-family="Times New Roman,serif" font-size="14.00">condense</text>
</g>
</g>
</svg>
